{
  "accessors": [
    {
      "bufferView": 2,
      "componentType": 5126,
      "count": 65532,
      "max": [
        638.754150390625,
        1014.0199584960938,
        598.559326171875
      ],
      "min": [
        -681.9794921875,
        206.55999755859375,
        -568.6359252929688
      ],
      "type": "VEC3"
    },
    {
      "bufferView": 2,
      "byteOffset": 786384,
      "componentType": 5126,
      "count": 65532,
      "max": [
        0.999991238117218,
        0.9999293088912964,
        0.9999362230300903
      ],
      "min": [
        -0.999965488910675,
        -0.9997109770774841,
        -0.9999494552612305
      ],
      "type": "VEC3"
    },
    {
      "bufferView": 1,
      "componentType": 5126,
      "count": 65532,
      "max": [
        0.9994649887084961,
        0.9422600269317627
      ],
      "min": [
        0.000534999999217689,
        0.000534999999217689
      ],
      "type": "VEC2"
    },
    {
      "bufferView": 0,
      "componentType": 5125,
      "count": 98298,
      "type": "SCALAR"
    },
    {
      "bufferView": 2,
      "byteOffset": 1572768,
      "componentType": 5126,
      "count": 14868,
      "max": [
        514.19482421875,
        901.4371948242188,
        141.4615020751953
      ],
      "min": [
        -384.7544860839844,
        554.3015747070313,
        -434.0060119628906
      ],
      "type": "VEC3"
    },
    {
      "bufferView": 2,
      "byteOffset": 1751184,
      "componentType": 5126,
      "count": 14868,
      "max": [
        0.9997475147247314,
        0.9987953305244446,
        0.9999355673789978
      ],
      "min": [
        -0.9996232986450195,
        -0.9997736215591431,
        -0.9991664290428162
      ],
      "type": "VEC3"
    },
    {
      "bufferView": 1,
      "byteOffset": 524256,
      "componentType": 5126,
      "count": 14868,
      "max": [
        0.9994649887084961,
        0.9422600269317627
      ],
      "min": [
        0.000534999999217689,
        0.000534999999217689
      ],
      "type": "VEC2"
    },
    {
      "bufferView": 0,
      "byteOffset": 393192,
      "componentType": 5125,
      "count": 22302,
      "type": "SCALAR"
    },
    {
      "bufferView": 2,
      "byteOffset": 1929600,
      "componentType": 5126,
      "count": 3028,
      "max": [
        207.25540161132813,
        586.4763793945313,
        196.50120544433594
      ],
      "min": [
        -197.70140075683594,
        -0.7016000747680664,
        -293.2184143066406
      ],
      "type": "VEC3"
    },
    {
      "bufferView": 2,
      "byteOffset": 1965936,
      "componentType": 5126,
      "count": 3028,
      "max": [
        0.9992280602455139,
        0.9993595480918884,
        0.9962943196296692
      ],
      "min": [
        -0.9999521970748901,
        -0.9994959831237793,
        -0.9997772574424744
      ],
      "type": "VEC3"
    },
    {
      "bufferView": 1,
      "byteOffset": 643200,
      "componentType": 5126,
      "count": 3028,
      "max": [
        0.9223629832267761,
        0.9996839761734009
      ],
      "min": [
        0.00031599999056197703,
        0.00031599999056197703
      ],
      "type": "VEC2"
    },
    {
      "bufferView": 0,
      "byteOffset": 482400,
      "componentType": 5125,
      "count": 15276,
      "type": "SCALAR"
    },
    {
      "bufferView": 2,
      "byteOffset": 2002272,
      "componentType": 5126,
      "count": 70,
      "max": [
        -28.52090072631836,
        140.852294921875,
        217.3542022705078
      ],
      "min": [
        -69.95350646972656,
        -0.15110015869140625,
        37.30149841308594
      ],
      "type": "VEC3"
    },
    {
      "bufferView": 2,
      "byteOffset": 2003112,
      "componentType": 5126,
      "count": 70,
      "max": [
        0.9971262812614441,
        0.4095434546470642,
        0.9949768781661987
      ],
      "min": [
        -0.9970128536224365,
        -0.39674732089042664,
        -0.9950005412101746
      ],
      "type": "VEC3"
    },
    {
      "bufferView": 1,
      "byteOffset": 667424,
      "componentType": 5126,
      "count": 70,
      "max": [
        0.9910460114479065,
        0.9999868869781494
      ],
      "min": [
        0.9480180740356445,
        1.2999999853491317e-05
      ],
      "type": "VEC2"
    },
    {
      "bufferView": 0,
      "byteOffset": 543504,
      "componentType": 5125,
      "count": 288,
      "type": "SCALAR"
    },
    {
      "bufferView": 2,
      "byteOffset": 2003952,
      "componentType": 5126,
      "count": 65532,
      "max": [
        602.9276123046875,
        962.1090698242188,
        563.886474609375
      ],
      "min": [
        -652.2432861328125,
        -10.937999725341797,
        -538.0628051757813
      ],
      "type": "VEC3"
    },
    {
      "bufferView": 2,
      "byteOffset": 2790336,
      "componentType": 5126,
      "count": 65532,
      "max": [
        0.9999938607215881,
        1.0,
        1.0
      ],
      "min": [
        -0.9999969005584717,
        -1.0,
        -1.0
      ],
      "type": "VEC3"
    },
    {
      "bufferView": 1,
      "byteOffset": 667984,
      "componentType": 5126,
      "count": 65532,
      "max": [
        0.9976239800453186,
        0.997511088848114
      ],
      "min": [
        0.0023759999312460423,
        0.0023759999312460423
      ],
      "type": "VEC2"
    },
    {
      "bufferView": 0,
      "byteOffset": 544656,
      "componentType": 5125,
      "count": 205740,
      "type": "SCALAR"
    },
    {
      "bufferView": 2,
      "byteOffset": 3576720,
      "componentType": 5126,
      "count": 23863,
      "max": [
        481.5184020996094,
        983.7191162109375,
        464.10430908203125
      ],
      "min": [
        -642.169189453125,
        -13.512999534606934,
        -497.27459716796875
      ],
      "type": "VEC3"
    },
    {
      "bufferView": 2,
      "byteOffset": 3863076,
      "componentType": 5126,
      "count": 23863,
      "max": [
        0.999988853931427,
        0.9999363422393799,
        0.9999468326568604
      ],
      "min": [
        -0.9998564124107361,
        -0.9999011158943176,
        -0.9999173879623413
      ],
      "type": "VEC3"
    },
    {
      "bufferView": 1,
      "byteOffset": 1192240,
      "componentType": 5126,
      "count": 23863,
      "max": [
        0.9976019859313965,
        0.9975929856300354
      ],
      "min": [
        0.0023759999312460423,
        0.0023759999312460423
      ],
      "type": "VEC2"
    },
    {
      "bufferView": 0,
      "byteOffset": 1367616,
      "componentType": 5125,
      "count": 57873,
      "type": "SCALAR"
    },
    {
      "bufferView": 2,
      "byteOffset": 4149432,
      "componentType": 5126,
      "count": 1230,
      "max": [
        239.14218139648438,
        95.3329086303711,
        230.62649536132813
      ],
      "min": [
        -58.89339065551758,
        0.0,
        -151.21629333496094
      ],
      "type": "VEC3"
    },
    {
      "bufferView": 2,
      "byteOffset": 4164192,
      "componentType": 5126,
      "count": 1230,
      "max": [
        0.9975453019142151,
        0.9951751828193665,
        0.9997203350067139
      ],
      "min": [
        -0.99894779920578,
        -0.9993646740913391,
        -0.9929887056350708
      ],
      "type": "VEC3"
    },
    {
      "bufferView": 1,
      "byteOffset": 1383144,
      "componentType": 5126,
      "count": 1230,
      "max": [
        0.942296028137207,
        0.9999309778213501
      ],
      "min": [
        6.900000880705193e-05,
        6.900000880705193e-05
      ],
      "type": "VEC2"
    },
    {
      "bufferView": 0,
      "byteOffset": 1599108,
      "componentType": 5125,
      "count": 5760,
      "type": "SCALAR"
    },
    {
      "bufferView": 2,
      "byteOffset": 4178952,
      "componentType": 5126,
      "count": 1250,
      "max": [
        220.0601043701172,
        141.6259002685547,
        255.30299377441406
      ],
      "min": [
        -151.48500061035156,
        -2.0981998443603516,
        -97.92749786376953
      ],
      "type": "VEC3"
    },
    {
      "bufferView": 2,
      "byteOffset": 4193952,
      "componentType": 5126,
      "count": 1250,
      "max": [
        0.9382017254829407,
        0.9999650716781616,
        0.9944873452186584
      ],
      "min": [
        -0.9874327778816223,
        -0.0345122292637825,
        -0.9566448926925659
      ],
      "type": "VEC3"
    },
    {
      "bufferView": 1,
      "byteOffset": 1392984,
      "componentType": 5126,
      "count": 1250,
      "max": [
        0.8553739786148071,
        0.996392011642456
      ],
      "min": [
        0.005375999957323074,
        0.017278999090194702
      ],
      "type": "VEC2"
    },
    {
      "bufferView": 1,
      "byteOffset": 1402984,
      "componentType": 5126,
      "count": 1250,
      "max": [
        0.8553739786148071,
        0.996392011642456
      ],
      "min": [
        0.005375999957323074,
        0.017278999090194702
      ],
      "type": "VEC2"
    },
    {
      "bufferView": 0,
      "byteOffset": 1622148,
      "componentType": 5125,
      "count": 2868,
      "type": "SCALAR"
    }
  ],
  "asset": {
    "extras": {
      "author": "yankobe (https://sketchfab.com/yankobe.do)",
      "license": "CC-BY-4.0 (http://creativecommons.org/licenses/by/4.0/)",
      "source": "https://sketchfab.com/3d-models/pine-fe89943042d04604ababdde9734ea9ab",
      "title": "Pine"
    },
    "generator": "Sketchfab-15.55.0",
    "version": "2.0"
  },
  "bufferViews": [
    {
      "buffer": 0,
      "byteLength": 1633620,
      "name": "floatBufferViews",
      "target": 34963
    },
    {
      "buffer": 0,
      "byteLength": 1412984,
      "byteOffset": 1633620,
      "byteStride": 8,
      "name": "floatBufferViews",
      "target": 34962
    },
    {
      "buffer": 0,
      "byteLength": 4208952,
      "byteOffset": 3046604,
      "byteStride": 12,
      "name": "floatBufferViews",
      "target": 34962
    }
  ],
  "buffers": [
    {
      "byteLength": 7255556,
      "uri": "scene.bin"
    }
  ],
  "images": [
    {
      "uri": "textures/Leaves_baseColor.jpeg"
    },
    {
      "uri": "textures/Moss_baseColor.jpeg"
    },
    {
      "uri": "textures/Weed_stem_baseColor.jpeg"
    },
    {
      "uri": "textures/Pine_baseColor.jpeg"
    },
    {
      "uri": "textures/Stone_baseColor.jpeg"
    },
    {
      "uri": "textures/Weeds_baseColor.png"
    }
  ],
  "materials": [
    {
      "doubleSided": true,
      "name": "Leaves",
      "pbrMetallicRoughness": {
        "baseColorTexture": {
          "index": 0
        },
        "metallicFactor": 0.0,
        "roughnessFactor": 0.9577051494623774
      }
    },
    {
      "doubleSided": true,
      "name": "Moss",
      "pbrMetallicRoughness": {
        "baseColorTexture": {
          "index": 1
        },
        "metallicFactor": 0.0,
        "roughnessFactor": 0.9577051494623774
      }
    },
    {
      "doubleSided": true,
      "name": "Weed_stem",
      "pbrMetallicRoughness": {
        "baseColorTexture": {
          "index": 2
        },
        "metallicFactor": 0.0,
        "roughnessFactor": 0.9577051494623774
      }
    },
    {
      "doubleSided": true,
      "name": "Pine",
      "pbrMetallicRoughness": {
        "baseColorTexture": {
          "index": 3
        },
        "metallicFactor": 0.0,
        "roughnessFactor": 0.9577051494623774
      }
    },
    {
      "doubleSided": true,
      "name": "Stone",
      "pbrMetallicRoughness": {
        "baseColorTexture": {
          "index": 4
        },
        "metallicFactor": 0.0,
        "roughnessFactor": 0.9577051494623774
      }
    },
    {
      "alphaMode": "BLEND",
      "doubleSided": true,
      "name": "Weeds",
      "pbrMetallicRoughness": {
        "baseColorTexture": {
          "index": 5
        },
        "metallicFactor": 0.0,
        "roughnessFactor": 0.9577051494623774
      }
    }
  ],
  "meshes": [
    {
      "name": "Pine.Shape_Leaves_0",
      "primitives": [
        {
          "attributes": {
            "NORMAL": 1,
            "POSITION": 0,
            "TEXCOORD_0": 2
          },
          "indices": 3,
          "material": 0,
          "mode": 4
        }
      ]
    },
    {
      "name": "Pine.Shape_Leaves_0",
      "primitives": [
        {
          "attributes": {
            "NORMAL": 5,
            "POSITION": 4,
            "TEXCOORD_0": 6
          },
          "indices": 7,
          "material": 0,
          "mode": 4
        }
      ]
    },
    {
      "name": "Pine.Shape_Moss_0",
      "primitives": [
        {
          "attributes": {
            "NORMAL": 9,
            "POSITION": 8,
            "TEXCOORD_0": 10
          },
          "indices": 11,
          "material": 1,
          "mode": 4
        }
      ]
    },
    {
      "name": "Pine.Shape_Weed_stem_0",
      "primitives": [
        {
          "attributes": {
            "NORMAL": 13,
            "POSITION": 12,
            "TEXCOORD_0": 14
          },
          "indices": 15,
          "material": 2,
          "mode": 4
        }
      ]
    },
    {
      "name": "Pine.Shape_Pine_0",
      "primitives": [
        {
          "attributes": {
            "NORMAL": 17,
            "POSITION": 16,
            "TEXCOORD_0": 18
          },
          "indices": 19,
          "material": 3,
          "mode": 4
        }
      ]
    },
    {
      "name": "Pine.Shape_Pine_0",
      "primitives": [
        {
          "attributes": {
            "NORMAL": 21,
            "POSITION": 20,
            "TEXCOORD_0": 22
          },
          "indices": 23,
          "material": 3,
          "mode": 4
        }
      ]
    },
    {
      "name": "Pine.Shape_Stone_0",
      "primitives": [
        {
          "attributes": {
            "NORMAL": 25,
            "POSITION": 24,
            "TEXCOORD_0": 26
          },
          "indices": 27,
          "material": 4,
          "mode": 4
        }
      ]
    },
    {
      "name": "Pine.Shape_Weeds_0",
      "primitives": [
        {
          "attributes": {
            "NORMAL": 29,
            "POSITION": 28,
            "TEXCOORD_0": 30,
            "TEXCOORD_1": 31
          },
          "indices": 32,
          "material": 5,
          "mode": 4
        }
      ]
    }
  ],
  "nodes": [
    {
      "children": [
        1
      ],
      "matrix": [
        1.0,
        0.0,
        0.0,
        0.0,
        0.0,
        2.220446049250313e-16,
        -1.0,
        0.0,
        0.0,
        1.0,
        2.220446049250313e-16,
        0.0,
        0.0,
        0.0,
        0.0,
        1.0
      ],
      "name": "Sketchfab_model"
    },
    {
      "children": [
        2
      ],
      "matrix": [
        0.009999999776482582,
        0.0,
        0.0,
        0.0,
        0.0,
        0.0,
        0.009999999776482582,
        0.0,
        0.0,
        -0.009999999776482582,
        0.0,
        0.0,
        0.0,
        0.0,
        0.0,
        1.0
      ],
      "name": "Pine.fbx"
    },
    {
      "children": [
        3
      ],
      "name": "RootNode"
    },
    {
      "children": [
        4
      ],
      "name": "Pine"
    },
    {
      "children": [
        5,
        6,
        7,
        8,
        9,
        10,
        11,
        12
      ],
      "name": "Pine.Shape"
    },
    {
      "mesh": 0,
      "name": "Pine.Shape_Leaves_0"
    },
    {
      "mesh": 1,
      "name": "Pine.Shape_Leaves_0"
    },
    {
      "mesh": 2,
      "name": "Pine.Shape_Moss_0"
    },
    {
      "mesh": 3,
      "name": "Pine.Shape_Weed_stem_0"
    },
    {
      "mesh": 4,
      "name": "Pine.Shape_Pine_0"
    },
    {
      "mesh": 5,
      "name": "Pine.Shape_Pine_0"
    },
    {
      "mesh": 6,
      "name": "Pine.Shape_Stone_0"
    },
    {
      "mesh": 7,
      "name": "Pine.Shape_Weeds_0"
    }
  ],
  "samplers": [
    {
      "magFilter": 9729,
      "minFilter": 9987,
      "wrapS": 10497,
      "wrapT": 10497
    }
  ],
  "scene": 0,
  "scenes": [
    {
      "name": "Sketchfab_Scene",
      "nodes": [
        0
      ]
    }
  ],
  "textures": [
    {
      "sampler": 0,
      "source": 0
    },
    {
      "sampler": 0,
      "source": 1
    },
    {
      "sampler": 0,
      "source": 2
    },
    {
      "sampler": 0,
      "source": 3
    },
    {
      "sampler": 0,
      "source": 4
    },
    {
      "sampler": 0,
      "source": 5
    }
  ]
}
